<svg xmlns="http://www.w3.org/2000/svg" version="1.1" viewBox="0 0 512 512"><path d="M 254.91,26.9348 C 233.353,27.5388 110.255,80.2753 97.4787,94.817 82.0126,112.42 34.9552,234.045 36.3287,250.667 38.24,273.798 84.8649,389.589 101.046,402.538 116.678,415.047 225.382,467.713 256,466.369 291.592,464.807 397.589,418.115 414.681,401.843 428.663,388.531 479.046,275.231 479.41,256 479.769,237.044 432.551,104.554 413.226,88.5331 394.783,73.2427 277.847,26.2921 254.91,26.9348 Z" fill="#fff"/><path d="m 487.759,193.282 c -7.398,-12.08 -17.223,-22.472 -28.794,-30.571 1.038,-5.898 1.62,-11.856 1.62,-17.821 0,-13.124 -2.5,-26.256 -7.51,-38.626 -5.009,-12.371 -12.557,-23.979 -22.546,-33.976 -9.996,-9.997 -21.605,-17.537 -33.975,-22.546 -12.37,-5.016 -25.503,-7.518 -38.627,-7.518 -5.965,0 -11.93,0.582 -17.827,1.62 C 332,32.281 321.615,22.448 309.536,15.05 293.962,5.51 275.56,-0.008 256,0 c -19.56,-0.008 -37.962,5.51 -53.535,15.05 -12.079,7.399 -22.464,17.231 -30.564,28.794 -5.897,-1.037 -11.862,-1.62 -17.828,-1.62 -13.124,0 -26.256,2.494 -38.626,7.511 -12.37,5.016 -23.986,12.556 -33.976,22.56 -9.996,9.989 -17.536,21.598 -22.546,33.968 -5.016,12.37 -7.518,25.502 -7.518,38.618 0,5.965 0.59,11.93 1.62,17.828 -11.564,8.1 -21.396,18.492 -28.794,30.571 -9.54,15.573 -15.058,33.975 -15.05,53.535 -0.008,19.56 5.51,37.962 15.05,53.528 7.398,12.08 17.23,22.471 28.794,30.571 -1.037,5.898 -1.62,11.863 -1.62,17.835 0,13.124 2.502,26.249 7.518,38.619 5.01,12.37 12.55,23.979 22.546,33.968 9.99,9.996 21.606,17.545 33.968,22.554 5.756,2.329 11.684,4.099 17.693,5.345 v 33.804 c 0,15.991 12.968,28.959 28.959,28.959 15.999,0 28.967,-12.968 28.967,-28.959 V 470.46 c 3.606,2.949 7.413,5.674 11.407,8.122 15.573,9.541 33.975,15.051 53.535,15.051 19.56,0 37.962,-5.51 53.535,-15.051 3.994,-2.449 7.802,-5.166 11.408,-8.122 v 12.579 c 0,15.991 12.968,28.959 28.959,28.959 15.999,0 28.966,-12.968 28.966,-28.959 V 449.23 c 6.01,-1.239 11.93,-3.009 17.686,-5.346 12.37,-5.001 23.979,-12.55 33.975,-22.538 9.989,-9.996 17.536,-21.606 22.546,-33.976 5.018,-12.378 7.518,-25.502 7.518,-38.619 0,-5.98 -0.589,-11.937 -1.62,-17.835 11.564,-8.1 21.396,-18.492 28.787,-30.571 9.548,-15.566 15.058,-33.968 15.058,-53.528 0,-19.559 -5.51,-37.962 -15.059,-53.535 z m -26.943,90.572 c -6.6,10.788 -16.029,19.701 -27.219,25.681 -6.645,3.554 -9.847,11.303 -7.668,18.515 2.046,6.727 3.068,13.707 3.068,20.702 0,9.108 -1.739,18.208 -5.204,26.749 -3.464,8.548 -8.637,16.528 -15.611,23.502 -6.965,6.965 -14.953,12.138 -23.494,15.603 -8.548,3.464 -17.648,5.203 -26.756,5.203 -6.988,0 -13.968,-1.023 -20.702,-3.061 -7.212,-2.187 -14.954,1.023 -18.507,7.668 -5.98,11.184 -14.901,20.619 -25.689,27.219 -10.795,6.608 -23.404,10.4 -37.036,10.407 -13.632,0 -26.234,-3.799 -37.036,-10.407 -10.788,-6.6 -19.702,-16.035 -25.682,-27.219 -3.561,-6.645 -11.303,-9.855 -18.515,-7.668 -6.733,2.038 -13.721,3.068 -20.702,3.061 -9.108,0 -18.208,-1.732 -26.756,-5.196 -8.541,-3.472 -16.529,-8.645 -23.494,-15.61 -6.973,-6.974 -12.147,-14.962 -15.61,-23.502 -3.464,-8.541 -5.204,-17.641 -5.204,-26.749 0,-6.987 1.023,-13.968 3.069,-20.702 2.18,-7.212 -1.031,-14.96 -7.667,-18.515 -11.191,-5.98 -20.62,-14.893 -27.228,-25.681 -6.599,-10.802 -10.391,-23.412 -10.399,-37.037 0.01,-13.632 3.8,-26.241 10.399,-37.036 6.607,-10.795 16.036,-19.708 27.228,-25.688 6.636,-3.554 9.847,-11.303 7.667,-18.507 -2.046,-6.734 -3.069,-13.722 -3.069,-20.703 0,-9.108 1.74,-18.208 5.204,-26.749 3.464,-8.547 8.638,-16.536 15.61,-23.501 6.973,-6.973 14.953,-12.154 23.501,-15.618 8.541,-3.464 17.641,-5.196 26.756,-5.196 6.98,0 13.968,1.023 20.694,3.061 7.212,2.188 14.962,-1.023 18.515,-7.667 5.98,-11.184 14.894,-20.612 25.682,-27.219 10.803,-6.6 23.404,-10.4 37.036,-10.4 13.632,0 26.241,3.8 37.036,10.4 10.788,6.606 19.71,16.035 25.682,27.219 3.554,6.652 11.303,9.855 18.515,7.667 6.726,-2.038 13.714,-3.061 20.694,-3.061 9.116,0 18.216,1.74 26.756,5.204 8.548,3.464 16.529,8.638 23.501,15.61 6.966,6.965 12.147,14.954 15.611,23.494 3.457,8.548 5.196,17.649 5.196,26.764 0,6.973 -1.023,13.961 -3.061,20.695 -2.187,7.211 1.023,14.953 7.668,18.507 11.19,5.98 20.619,14.901 27.226,25.688 6.6,10.803 10.392,23.404 10.399,37.036 0,13.625 -3.796,26.235 -10.404,37.037 z" fill="#4b4b4b"/><path d="m 352.156,177.709 c -40.986,15.797 -44.136,15.797 -44.136,15.797 0,0 -11.034,0 -52.02,0 -40.986,0 -52.02,0 -52.02,0 0,0 -3.15,0 -44.136,-15.797 -40.985,-15.797 -44.136,55.29 28.376,75.028 0,0 11.034,118.478 67.78,118.478 56.746,0 67.779,-118.478 67.779,-118.478 72.513,-19.738 69.363,-90.825 28.377,-75.028 z" fill="#916f6f"/></svg>